# xmcd
#
# Track frame offsets:
#  150
#  19723
#  41991
#  60642
#  82531
#  102961
#  125435
#  141554
#  156358
#  171250
#
# Disc length: 2528 seconds
#
# Revision: 0
# Processed by: cddbd v1.5.1PL2 Copyright (c) Steve Scherf et al.
# Submitted via: Collectorz.com_Music_Collector 6.11
#
DISCID=8309de0a
DTITLE=Barbara Carr - Down Low Brother
DYEAR=2006
DGENRE=Soul
TTITLE0=You've Got To Right The Wrong
TTITLE1=Down Low Brother
TTITLE2=Y'all Know How To Party
TTITLE3=Freedom
TTITLE4=You Gonna Mess Around And Get Bit By My Dog Trying To Get To My Cat
TTITLE5=Just Be A Woman About It
TTITLE6=You're A Liar
TTITLE7=Ain't Nothing In The Streets That You Can't Get At Home
TTITLE8=When You're Cheatin
TTITLE9=I'm Not Going Down Without A Fight
EXTD=
EXTT0=
EXTT1=
EXTT2=
EXTT3=
EXTT4=
EXTT5=
EXTT6=
EXTT7=
EXTT8=
EXTT9=
PLAYORDER=
